<?xml version="1.0" encoding="UTF-8"?>
<svg id="Layer_1" xmlns="http://www.w3.org/2000/svg" version="1.1" viewBox="0 0 522.67 522.67">
  <!-- Generator: Adobe Illustrator 29.8.3, SVG Export Plug-In . SVG Version: 2.1.1 Build 3)  -->
  <defs>
    <style>
      .st0 {
        stroke-width: 21.02px;
      }

      .st0, .st1, .st2 {
        fill: none;
        stroke: #fff;
      }

      .st3 {
        fill: #fff;
      }

      .st1 {
        stroke-width: 4.19px;
      }

      .st4 {
        fill: #009444;
      }

      .st2 {
        stroke-width: 4.25px;
      }
    </style>
  </defs>
  <path class="st4" d="M79.23,465.91c0-.61.23-1.14.68-1.57.45-.44,1-.65,1.64-.65s1.18.21,1.62.64c3.44,4.14,5.16,8.81,5.16,14.01,0,6.15-2.27,11.4-6.8,15.75-4.54,4.35-10,6.53-16.41,6.53s-11.87-2.18-16.41-6.53c-4.54-4.35-6.8-9.6-6.8-15.75,0-5.31,1.77-10.04,5.31-14.18.46-.43,1.02-.64,1.65-.64s1.18.22,1.64.65c.45.44.68.96.68,1.57s-.23,1.14-.7,1.59c-2.63,3.14-3.95,6.81-3.95,11,0,4.92,1.81,9.12,5.44,12.6,3.63,3.48,8,5.22,13.13,5.22s9.5-1.74,13.13-5.22c3.63-3.48,5.44-7.68,5.44-12.6,0-4.25-1.35-7.96-4.06-11.14-.27-.37-.41-.8-.41-1.28"/>
  <path class="st4" d="M65.13,413.26c6.4,0,11.87,2.18,16.41,6.53,4.54,4.35,6.8,9.6,6.8,15.75s-2.27,11.4-6.8,15.75c-4.54,4.35-10,6.53-16.41,6.53s-11.87-2.18-16.41-6.53c-4.54-4.35-6.8-9.6-6.8-15.75s2.27-11.4,6.8-15.75c4.54-4.35,10.01-6.53,16.41-6.53M46.56,435.54c0,4.92,1.81,9.12,5.44,12.6,3.63,3.48,8,5.22,13.13,5.22s9.5-1.74,13.13-5.22c3.63-3.48,5.44-7.68,5.44-12.6s-1.81-9.12-5.44-12.6c-3.63-3.48-8-5.22-13.13-5.22s-9.5,1.74-13.13,5.22c-3.63,3.48-5.44,7.68-5.44,12.6"/>
  <path class="st4" d="M86.02,401.5c.64,0,1.18.22,1.64.65.45.44.68.96.68,1.57s-.23,1.14-.68,1.57c-.45.44-1,.65-1.64.65h-41.78c-.64,0-1.18-.22-1.64-.65-.45-.44-.68-.96-.68-1.57,0-.67.28-1.24.84-1.73l36.5-27.24h-35.02c-.64,0-1.18-.22-1.64-.65-.45-.44-.68-.96-.68-1.57s.23-1.14.68-1.57c.45-.44,1-.65,1.64-.65h41.78c.64,0,1.18.22,1.64.65.45.44.68.96.68,1.57,0,.65-.25,1.21-.75,1.67l-36.56,27.29h34.99Z"/>
  <path class="st4" d="M61.1,358.15c-2.44,1.99-5.26,2.86-8.47,2.62-3.19-.26-5.82-1.56-7.89-3.9-1.88-2.1-2.81-4.51-2.81-7.24,0-3.23,1.38-6.05,4.15-8.47.5-.41,1.03-.77,1.57-1.09.37-.22.78-.33,1.25-.33.64,0,1.18.22,1.64.65.45.44.68.96.68,1.57,0,.71-.23,1.23-.7,1.56-.46.33-.94.68-1.42,1.03-1.47,1.21-2.28,2.72-2.44,4.54-.15,1.84.39,3.46,1.64,4.87,1.25,1.41,2.82,2.19,4.71,2.34,1.91.15,3.61-.38,5.08-1.59.99-.98,1.78-2.58,2.38-4.79.89-3.88,2.53-6.83,4.93-8.86,2.59-2.1,5.53-3.15,8.82-3.15.45,0,.89.02,1.33.06,3.83.3,6.98,1.85,9.46,4.65,2.22,2.51,3.34,5.36,3.34,8.55,0,3.99-1.64,7.43-4.93,10.3-.44.39-.92.74-1.42,1.06-.41.3-.87.45-1.39.45-.64,0-1.18-.22-1.64-.65-.45-.44-.68-.96-.68-1.57,0-.8.36-1.43,1.07-1.89.37-.22.72-.48,1.04-.78,1.97-1.58,3.07-3.6,3.28-6.07.19-2.45-.54-4.61-2.19-6.49-1.65-1.88-3.76-2.91-6.31-3.12-2.57-.2-4.84.48-6.79,2.06-1.61,1.37-2.8,3.52-3.6,6.43-.52,2.82-1.75,5.24-3.68,7.24"/>
  <path class="st4" d="M46.56,328.4c0,.61-.23,1.14-.68,1.57-.45.44-1,.65-1.64.65s-1.18-.22-1.64-.65c-.45-.44-.68-.96-.68-1.57v-28.96c0-.61.23-1.14.68-1.57.45-.44,1-.65,1.64-.65s1.19.22,1.64.65c.45.44.68.96.68,1.57v12.25h39.46c.64,0,1.18.22,1.64.65.45.44.68.96.68,1.57s-.23,1.14-.68,1.57c-.45.44-1,.65-1.64.65h-39.46v12.25Z"/>
  <path class="st4" d="M41.92,287.67v-11.14c0-3.69,1.36-6.85,4.08-9.46,2.72-2.61,6-3.91,9.85-3.91s7.13,1.3,9.84,3.9c1.26,1.21,2.22,2.52,2.87,3.93l16.19-9.69c.37-.24.79-.36,1.28-.36.64,0,1.18.22,1.64.65.45.44.68.96.68,1.57,0,.8-.4,1.45-1.19,1.95l-17.41,10.44c.02.32.03.64.03.97v8.91h16.25c.64,0,1.18.22,1.64.65.45.44.68.96.68,1.57s-.23,1.14-.68,1.57c-.45.44-1,.65-1.64.65h-41.78c-.64,0-1.18-.22-1.64-.65-.45-.44-.68-.96-.68-1.57M46.56,285.44h18.57v-8.91c0-2.47-.9-4.57-2.71-6.31-1.81-1.74-4-2.6-6.57-2.6s-4.76.87-6.57,2.6c-1.81,1.74-2.71,3.84-2.71,6.31v8.91Z"/>
  <path class="st4" d="M44.24,253.63c-.64,0-1.18-.22-1.64-.65-.45-.44-.68-.96-.68-1.57s.23-1.14.68-1.57c.45-.44,1-.65,1.64-.65h27.85c3.21,0,5.95-1.09,8.21-3.26,2.26-2.17,3.39-4.8,3.39-7.88s-1.13-5.71-3.39-7.88c-2.26-2.17-5-3.26-8.21-3.26h-27.85c-.64,0-1.18-.22-1.64-.65-.45-.44-.68-.96-.68-1.57s.23-1.14.68-1.57c.45-.44,1-.65,1.64-.65h27.85c4.49,0,8.32,1.52,11.49,4.57,3.17,3.05,4.76,6.72,4.76,11.03s-1.59,7.98-4.76,11.03c-3.17,3.05-7,4.57-11.49,4.57h-27.85Z"/>
  <path class="st4" d="M79.23,180.43c0-.61.23-1.14.68-1.57.45-.44,1-.65,1.64-.65s1.18.21,1.62.64c3.44,4.14,5.16,8.81,5.16,14.01,0,6.15-2.27,11.4-6.8,15.75-4.54,4.35-10,6.53-16.41,6.53s-11.87-2.18-16.41-6.53c-4.54-4.35-6.8-9.6-6.8-15.75,0-5.31,1.77-10.03,5.31-14.18.46-.43,1.02-.64,1.65-.64s1.18.22,1.64.65c.45.44.68.96.68,1.57s-.23,1.14-.7,1.59c-2.63,3.14-3.95,6.81-3.95,11,0,4.92,1.81,9.12,5.44,12.6,3.63,3.48,8,5.22,13.13,5.22s9.5-1.74,13.13-5.22c3.63-3.48,5.44-7.68,5.44-12.6,0-4.25-1.35-7.96-4.06-11.14-.27-.37-.41-.8-.41-1.28"/>
  <path class="st4" d="M46.56,168.83c0,.61-.23,1.14-.68,1.57-.45.44-1,.65-1.64.65s-1.18-.22-1.64-.65c-.45-.44-.68-.96-.68-1.57v-28.96c0-.61.23-1.14.68-1.57.45-.44,1-.65,1.64-.65s1.19.22,1.64.65c.45.44.68.96.68,1.57v12.25h39.46c.64,0,1.18.22,1.64.66.45.44.68.96.68,1.57s-.23,1.14-.68,1.57c-.45.44-1,.65-1.64.65h-39.46v12.25Z"/>
  <path class="st4" d="M44.24,128.1c-.64,0-1.18-.22-1.64-.65-.45-.44-.68-.96-.68-1.57s.23-1.14.68-1.57c.45-.44,1-.65,1.64-.65h41.78c.64,0,1.18.22,1.64.65.45.44.68.96.68,1.57s-.23,1.14-.68,1.57c-.45.44-1,.65-1.64.65h-41.78Z"/>
  <path class="st4" d="M65.13,69.55c6.4,0,11.87,2.18,16.41,6.53,4.54,4.35,6.8,9.6,6.8,15.75s-2.27,11.4-6.8,15.75c-4.54,4.35-10,6.53-16.41,6.53s-11.87-2.18-16.41-6.53c-4.54-4.35-6.8-9.6-6.8-15.75s2.27-11.39,6.8-15.75c4.54-4.35,10.01-6.53,16.41-6.53M46.56,91.83c0,4.92,1.81,9.12,5.44,12.6,3.63,3.48,8,5.22,13.13,5.22s9.5-1.74,13.13-5.22c3.63-3.48,5.44-7.68,5.44-12.6s-1.81-9.12-5.44-12.6c-3.63-3.48-8-5.22-13.13-5.22s-9.5,1.74-13.13,5.22c-3.63,3.48-5.44,7.68-5.44,12.6"/>
  <path class="st4" d="M86.02,57.78c.64,0,1.18.22,1.64.65.45.44.68.96.68,1.57s-.23,1.14-.68,1.57c-.45.44-1,.65-1.64.65h-41.78c-.64,0-1.18-.22-1.64-.65-.45-.44-.68-.96-.68-1.57,0-.67.28-1.24.84-1.73l36.5-27.24h-35.02c-.64,0-1.18-.22-1.64-.65-.45-.44-.68-.96-.68-1.57s.23-1.14.68-1.57c.45-.44,1-.65,1.64-.65h41.78c.64,0,1.18.22,1.64.65.45.44.68.96.68,1.57,0,.65-.25,1.21-.75,1.67l-36.56,27.29h34.99Z"/>
  <polygon class="st4" points="467.24 22.38 313.75 259.86 480.74 500.61 105.93 499.96 105.93 22.05 467.24 22.38"/>
  <path class="st3" d="M162.86,500.61V25.52c-.27,158.14-.28,317.08-.02,475.1h.02Z"/>
  <path class="st0" d="M162.86,22.05c-.28,159.17-.28,319.16,0,478.15"/>
  <polygon class="st3" points="214.13 362.43 228.01 362.43 228.01 356.9 261.92 356.9 261.92 362.43 275.8 362.43 275.8 356.9 303.92 356.9 303.92 344.61 275.8 344.61 275.8 337.34 261.92 337.34 261.92 344.61 228.01 344.61 228.01 337.34 214.13 337.34 214.13 344.61 186.36 344.61 186.36 356.9 214.13 356.9 214.13 362.43"/>
  <path class="st3" d="M251.02,365.03c-1.17,0-1.76.58-1.76,1.73v31.5c0,1.15.58,1.79,1.76,1.9h48.15c1.17,0,1.81-.63,1.93-1.9v-31.5c0-1.15-.65-1.73-1.93-1.73h-48.15ZM287.22,387.88c0,.35-.24.58-.7.69h-22.84c-.47-.11-.65-.35-.53-.69v-10.73c-.12-.35.06-.52.53-.52h22.84c.47,0,.7.17.7.52v10.73Z"/>
  <path class="st3" d="M190.76,416.09c-6.44-10.84-13.47-21.4-21.09-31.67v-2.6h11.25v-13.67h-11.25v-31.5h-13.88v31.5h-17.92v13.67h15.99c-3.16,21.12-9.49,40.39-18.98,57.81l13.7,2.77c2.46-4.96,4.86-10.9,7.21-17.83v75.64h13.88v-93.64c3.51,6,6.62,11.6,9.31,16.79l11.77-7.27Z"/>
  <path class="st3" d="M303.57,497.91v-12.07h-48.15v-10.56h42.17v-12.29h-42.17v-10.56h42.17v-12.29h-42.17v-10.56h44.81l1.23-12.29h-45.16c1.87-3.58,3.4-6.86,4.57-9.87l-11.42-5.37c-1.52,4.15-4.1,9.23-7.73,15.23h-31.45c1.17-2.19,2.46-4.5,3.87-6.92l-13-6.92c-5.74,14.19-14.12,25.79-25.13,34.79,2.93,2.19,5.86,5.71,8.79,10.56,2.93-2.54,5.68-5.13,8.26-7.79v52.27c0,3.23,1.58,4.85,4.74,4.85h104.11c.56-.07,1.12-.14,1.68-.21ZM241.54,485.84h-32.68c-1.17,0-1.82-.69-1.93-2.08v-8.48h34.61v10.56ZM241.54,462.99h-34.62v-10.56h34.62v10.56ZM241.54,440.15h-34.61v-8.65c0-1.15.64-1.79,1.93-1.9h32.68v10.56Z"/>
  <path class="st3" d="M189.17,365.03c-1.17,0-1.76.58-1.76,1.73v32.19c0,1.15.58,1.79,1.76,1.9h48.15c1.17,0,1.81-.63,1.93-1.9v-32.19c0-1.15-.65-1.73-1.93-1.73h-48.15ZM225.37,388.57c0,.35-.24.58-.7.69h-22.84c-.47-.11-.64-.35-.53-.69v-11.42c-.12-.35.06-.52.53-.52h22.84c.47,0,.7.17.7.52v11.42Z"/>
  <polygon class="st2" points="214.13 362.43 228.01 362.43 228.01 356.9 261.92 356.9 261.92 362.43 275.8 362.43 275.8 356.9 303.92 356.9 303.92 344.61 275.8 344.61 275.8 337.34 261.92 337.34 261.92 344.61 228.01 344.61 228.01 337.34 214.13 337.34 214.13 344.61 186.36 344.61 186.36 356.9 214.13 356.9 214.13 362.43"/>
  <path class="st2" d="M251.02,365.03c-1.17,0-1.76.58-1.76,1.73v31.5c0,1.15.58,1.79,1.76,1.9h48.15c1.17,0,1.81-.63,1.93-1.9v-31.5c0-1.15-.65-1.73-1.93-1.73h-48.15ZM287.22,387.88c0,.35-.24.58-.7.69h-22.84c-.47-.11-.65-.35-.53-.69v-10.73c-.12-.35.06-.52.53-.52h22.84c.47,0,.7.17.7.52v10.73Z"/>
  <path class="st2" d="M189.17,365.03c-1.17,0-1.76.58-1.76,1.73v32.19c0,1.15.58,1.79,1.76,1.9h48.15c1.17,0,1.81-.63,1.93-1.9v-32.19c0-1.15-.65-1.73-1.93-1.73h-48.15ZM225.37,388.57c0,.35-.24.58-.7.69h-22.84c-.47-.11-.64-.35-.53-.69v-11.42c-.12-.35.06-.52.53-.52h22.84c.47,0,.7.17.7.52v11.42Z"/>
  <path class="st2" d="M303.57,497.91v-12.07h-48.15v-10.56h42.17v-12.29h-42.17v-10.56h42.17v-12.29h-42.17v-10.56h44.81l1.23-12.29h-45.16c1.87-3.58,3.4-6.86,4.57-9.87l-11.42-5.37c-1.52,4.15-4.1,9.23-7.73,15.23h-31.45c1.17-2.19,2.46-4.5,3.87-6.92l-13-6.92c-5.74,14.19-14.12,25.79-25.13,34.79,2.93,2.19,5.86,5.71,8.79,10.56,2.93-2.54,5.68-5.13,8.26-7.79v52.27c0,3.23,1.58,4.85,4.74,4.85h104.11c.56-.07,1.12-.14,1.68-.21ZM241.54,485.84h-32.68c-1.17,0-1.82-.69-1.93-2.08v-8.48h34.61v10.56ZM241.54,462.99h-34.62v-10.56h34.62v10.56ZM241.54,440.15h-34.61v-8.65c0-1.15.64-1.79,1.93-1.9h32.68v10.56Z"/>
  <path class="st1" d="M190.76,413.91c-6.44-10.55-13.47-20.82-21.09-30.8v-2.52h11.25v-13.3h-11.25v-30.64h-13.88v30.64h-17.92v13.3h15.99c-3.16,20.54-9.49,39.28-18.98,56.22l13.7,2.69c2.46-4.82,4.86-10.6,7.21-17.34v73.56h13.88v-91.07c3.51,5.84,6.62,11.28,9.31,16.33l11.77-7.07Z"/>
</svg>