<?xml version="1.0" encoding="UTF-8"?>
<svg id="Layer_1" xmlns="http://www.w3.org/2000/svg" version="1.1" viewBox="0 0 2097.78 979.06">
  <!-- Generator: Adobe Illustrator 29.8.3, SVG Export Plug-In . SVG Version: 2.1.1 Build 3)  -->
  <defs>
    <style>
      .st0 {
        fill: #414142;
      }

      .st1 {
        fill: #009444;
      }

      .st2 {
        fill: #595a5c;
      }
    </style>
  </defs>
  <path class="st1" d="M202.4,905.06c2.55,0,4.74.95,6.56,2.84,1.82,1.89,2.73,4.17,2.73,6.83s-.89,4.92-2.67,6.77c-17.26,14.35-36.73,21.53-58.4,21.53-25.62,0-47.51-9.45-65.66-28.36-18.15-18.91-27.23-41.71-27.23-68.4s9.07-49.49,27.23-68.4c18.15-18.91,40.04-28.36,65.66-28.36,22.14,0,41.84,7.38,59.1,22.14,1.78,1.94,2.67,4.23,2.67,6.89s-.91,4.94-2.73,6.83c-1.82,1.9-4.01,2.84-6.56,2.84s-4.76-.97-6.62-2.9c-13.08-10.97-28.37-16.45-45.86-16.45-20.51,0-38.02,7.56-52.54,22.68-14.51,15.12-21.77,33.36-21.77,54.73s7.26,39.61,21.77,54.73c14.51,15.12,32.03,22.68,52.54,22.68,17.72,0,33.21-5.64,46.44-16.93,1.55-1.13,3.33-1.69,5.34-1.69"/>
  <path class="st1" d="M421.89,846.27c0,26.7-9.08,49.49-27.23,68.4-18.15,18.91-40.04,28.36-65.66,28.36s-47.51-9.45-65.66-28.36c-18.15-18.91-27.23-41.71-27.23-68.4s9.08-49.49,27.23-68.4c18.15-18.91,40.04-28.36,65.66-28.36s47.51,9.46,65.66,28.36c18.15,18.91,27.23,41.71,27.23,68.4M329,768.86c-20.51,0-38.03,7.56-52.54,22.68-14.51,15.12-21.77,33.36-21.77,54.73s7.26,39.61,21.77,54.73c14.51,15.12,32.03,22.68,52.54,22.68s38.03-7.56,52.54-22.68c14.51-15.12,21.77-33.36,21.77-54.73s-7.26-39.61-21.77-54.73c-14.51-15.12-32.03-22.68-52.54-22.68"/>
  <path class="st1" d="M470.93,933.36c0,2.66-.91,4.94-2.73,6.83-1.82,1.89-4,2.84-6.56,2.84s-4.74-.95-6.56-2.84c-1.82-1.9-2.73-4.17-2.73-6.83v-174.18c0-2.66.91-4.94,2.73-6.83,1.82-1.9,4.01-2.84,6.56-2.84,2.79,0,5.19,1.17,7.2,3.51l113.55,152.16v-145.99c0-2.66.91-4.94,2.73-6.83,1.82-1.9,4-2.84,6.56-2.84s4.74.95,6.56,2.84c1.82,1.89,2.73,4.17,2.73,6.83v174.18c0,2.66-.91,4.94-2.73,6.83-1.82,1.89-4.01,2.84-6.56,2.84-2.71,0-5.03-1.05-6.97-3.14l-113.78-152.4v145.87Z"/>
  <path class="st1" d="M651.64,829.46c-8.28-10.16-11.92-21.93-10.91-35.32,1.08-13.31,6.5-24.27,16.26-32.9,8.75-7.82,18.81-11.73,30.19-11.73,13.47,0,25.23,5.77,35.3,17.3,1.7,2.1,3.21,4.27,4.53,6.53.93,1.53,1.39,3.26,1.39,5.2,0,2.66-.91,4.94-2.73,6.83-1.82,1.9-4.01,2.84-6.56,2.84-2.94,0-5.11-.97-6.5-2.9-1.39-1.93-2.83-3.91-4.3-5.93-5.03-6.13-11.34-9.51-18.92-10.16-7.66-.64-14.44,1.63-20.32,6.84-5.88,5.2-9.13,11.75-9.75,19.65-.62,7.98,1.59,15.04,6.62,21.17,4.1,4.11,10.76,7.42,19.97,9.92,16.18,3.71,28.48,10.57,36.92,20.56,8.75,10.81,13.12,23.06,13.12,36.77,0,1.86-.08,3.71-.23,5.56-1.24,15.97-7.7,29.11-19.39,39.43-10.45,9.27-22.33,13.91-35.64,13.91-16.64,0-30.96-6.85-42.96-20.56-1.63-1.85-3.1-3.83-4.41-5.93-1.24-1.69-1.86-3.63-1.86-5.81,0-2.66.91-4.94,2.73-6.83,1.82-1.89,4.01-2.84,6.56-2.84,3.33,0,5.96,1.49,7.9,4.48.93,1.54,2.01,2.99,3.25,4.35,6.58,8.23,15.02,12.78,25.31,13.67,10.22.81,19.23-2.24,27.05-9.13,7.82-6.89,12.15-15.66,13-26.31.85-10.72-2.01-20.16-8.59-28.3-5.73-6.69-14.67-11.69-26.82-15-11.77-2.18-21.83-7.3-30.19-15.36"/>
  <path class="st1" d="M775.69,768.86c-2.55,0-4.74-.95-6.56-2.84-1.82-1.89-2.73-4.17-2.73-6.83s.91-4.94,2.73-6.83c1.82-1.89,4.01-2.84,6.56-2.84h120.75c2.55,0,4.74.95,6.56,2.84,1.82,1.9,2.73,4.17,2.73,6.83s-.91,4.94-2.73,6.83c-1.82,1.9-4.01,2.84-6.56,2.84h-51.08v164.5c0,2.66-.91,4.94-2.73,6.83-1.82,1.89-4.01,2.84-6.56,2.84s-4.74-.95-6.56-2.84c-1.82-1.9-2.73-4.17-2.73-6.83v-164.5h-51.08Z"/>
  <path class="st1" d="M945.48,749.51h46.44c15.4,0,28.54,5.67,39.42,16.99,10.87,11.33,16.31,25.02,16.31,41.07s-5.42,29.71-16.26,41c-5.03,5.24-10.49,9.23-16.37,11.98l40.41,67.49c1,1.53,1.51,3.31,1.51,5.32,0,2.66-.91,4.94-2.73,6.83-1.82,1.89-4,2.84-6.56,2.84-3.33,0-6.04-1.65-8.12-4.96l-43.54-72.57c-1.32.08-2.67.12-4.06.12h-37.15v67.74c0,2.66-.91,4.94-2.73,6.83-1.82,1.89-4.01,2.84-6.56,2.84s-4.74-.95-6.56-2.84c-1.82-1.9-2.73-4.17-2.73-6.83v-174.18c0-2.66.91-4.94,2.73-6.83,1.82-1.89,4-2.84,6.56-2.84M954.77,768.86v77.41h37.15c10.29,0,19.06-3.77,26.3-11.31,7.24-7.54,10.85-16.67,10.85-27.4s-3.62-19.86-10.85-27.4c-7.24-7.54-16-11.31-26.3-11.31h-37.15Z"/>
  <path class="st1" d="M1087.41,759.18c0-2.66.91-4.94,2.73-6.83,1.82-1.9,4-2.84,6.56-2.84s4.74.95,6.56,2.84c1.82,1.9,2.73,4.17,2.73,6.83v116.12c0,13.39,4.53,24.8,13.58,34.23,9.05,9.43,20.01,14.15,32.86,14.15s23.8-4.72,32.86-14.15c9.06-9.44,13.58-20.84,13.58-34.23v-116.12c0-2.66.91-4.94,2.73-6.83,1.82-1.9,4.01-2.84,6.56-2.84s4.74.95,6.56,2.84c1.82,1.9,2.73,4.17,2.73,6.83v116.12c0,18.71-6.34,34.67-19.04,47.9-12.69,13.23-28.02,19.84-45.98,19.84s-33.28-6.61-45.98-19.84c-12.69-13.22-19.04-29.19-19.04-47.9v-116.12Z"/>
  <path class="st1" d="M1392.58,905.06c2.56,0,4.74.95,6.56,2.84,1.82,1.89,2.73,4.17,2.73,6.83s-.89,4.92-2.67,6.77c-17.26,14.35-36.73,21.53-58.4,21.53-25.62,0-47.51-9.45-65.66-28.36-18.15-18.91-27.22-41.71-27.22-68.4s9.07-49.49,27.22-68.4c18.15-18.91,40.04-28.36,65.66-28.36,22.13,0,41.83,7.38,59.1,22.14,1.78,1.94,2.67,4.23,2.67,6.89s-.91,4.94-2.73,6.83c-1.82,1.9-4,2.84-6.56,2.84s-4.76-.97-6.62-2.9c-13.08-10.97-28.37-16.45-45.86-16.45-20.51,0-38.03,7.56-52.54,22.68-14.51,15.12-21.77,33.36-21.77,54.73s7.26,39.61,21.77,54.73c14.51,15.12,32.03,22.68,52.54,22.68,17.72,0,33.2-5.64,46.44-16.93,1.55-1.13,3.32-1.69,5.34-1.69"/>
  <path class="st1" d="M1440.93,768.86c-2.56,0-4.74-.95-6.56-2.84-1.82-1.89-2.73-4.17-2.73-6.83s.91-4.94,2.73-6.83c1.82-1.89,4-2.84,6.56-2.84h120.75c2.56,0,4.74.95,6.56,2.84,1.82,1.9,2.73,4.17,2.73,6.83s-.91,4.94-2.73,6.83c-1.82,1.9-4,2.84-6.56,2.84h-51.08v164.5c0,2.66-.91,4.94-2.73,6.83-1.82,1.89-4,2.84-6.56,2.84s-4.74-.95-6.56-2.84c-1.82-1.9-2.73-4.17-2.73-6.83v-164.5h-51.09Z"/>
  <path class="st1" d="M1610.72,759.18c0-2.66.91-4.94,2.73-6.83,1.82-1.9,4.01-2.84,6.56-2.84s4.74.95,6.56,2.84c1.82,1.9,2.73,4.17,2.73,6.83v174.18c0,2.66-.91,4.94-2.73,6.83-1.82,1.89-4,2.84-6.56,2.84s-4.74-.95-6.56-2.84c-1.82-1.9-2.73-4.17-2.73-6.83v-174.18Z"/>
  <path class="st1" d="M1854.82,846.27c0,26.7-9.08,49.49-27.23,68.4-18.15,18.91-40.04,28.36-65.66,28.36s-47.51-9.45-65.66-28.36c-18.15-18.91-27.22-41.71-27.22-68.4s9.07-49.49,27.22-68.4c18.15-18.91,40.04-28.36,65.66-28.36s47.5,9.46,65.66,28.36c18.15,18.91,27.23,41.71,27.23,68.4M1761.94,768.86c-20.51,0-38.03,7.56-52.54,22.68-14.51,15.12-21.77,33.36-21.77,54.73s7.26,39.61,21.77,54.73c14.51,15.12,32.03,22.68,52.54,22.68s38.02-7.56,52.53-22.68c14.51-15.12,21.77-33.36,21.77-54.73s-7.26-39.61-21.77-54.73c-14.51-15.12-32.03-22.68-52.53-22.68"/>
  <path class="st1" d="M1903.87,933.36c0,2.66-.91,4.94-2.73,6.83-1.82,1.89-4.01,2.84-6.56,2.84s-4.74-.95-6.56-2.84c-1.82-1.9-2.73-4.17-2.73-6.83v-174.18c0-2.66.91-4.94,2.73-6.83,1.82-1.9,4-2.84,6.56-2.84,2.78,0,5.19,1.17,7.2,3.51l113.55,152.16v-145.99c0-2.66.91-4.94,2.73-6.83,1.82-1.9,4.01-2.84,6.56-2.84s4.74.95,6.56,2.84c1.82,1.89,2.73,4.17,2.73,6.83v174.18c0,2.66-.91,4.94-2.73,6.83-1.82,1.89-4,2.84-6.56,2.84-2.71,0-5.03-1.05-6.96-3.14l-113.78-152.4v145.87Z"/>
  <path class="st2" d="M870.94,567.57c-8.43,15.75-18.67,30.12-30.76,43.11-12.08,13-25.63,24.17-40.64,33.5-15.02,9.34-31.4,16.57-49.16,21.69-17.76,5.13-36.16,7.69-55.2,7.69-27.46,0-53.27-5.22-77.44-15.65-24.16-10.44-45.23-24.62-63.16-42.57-17.94-17.94-32.13-38.99-42.57-63.16-10.44-24.17-15.65-49.98-15.65-77.44s5.22-52.73,15.65-76.89c10.44-24.17,24.62-45.31,42.57-63.44,17.94-18.12,39-32.4,63.16-42.84,24.17-10.44,49.98-15.65,77.44-15.65,18.67,0,36.61,2.47,53.82,7.41,17.21,4.94,33.23,11.9,48.06,20.87,14.83,8.98,28.19,19.69,40.09,32.13,11.89,12.45,22.05,26.18,30.48,41.19-8.43,4.39-15.2,7.96-20.32,10.71-5.13,2.75-10.07,5.31-14.83,7.69-4.76,2.39-10.07,5.04-15.93,7.96-5.86,2.94-13.37,6.59-22.52,10.98-9.53-16.84-23.07-30.48-40.64-40.92-17.58-10.44-36.99-15.65-58.22-15.65-16.12,0-31.22,3.11-45.31,9.34-14.1,6.23-26.46,14.55-37.07,24.99-10.62,10.44-18.95,22.79-24.99,37.07-6.04,14.28-9.06,29.3-9.06,45.04s3.02,31.22,9.06,45.31c6.04,14.1,14.37,26.46,24.99,37.07,10.62,10.62,22.97,18.95,37.07,24.99,14.09,6.04,29.2,9.06,45.31,9.06,21.97,0,42.02-5.58,60.14-16.75,18.12-11.16,32.13-25.9,42.02-44.21,9.15,4.76,16.56,8.61,22.24,11.53,5.67,2.93,10.89,5.68,15.65,8.24,4.75,2.57,9.7,5.13,14.83,7.69,5.12,2.57,12.08,5.86,20.87,9.89"/>
  <polygon class="st2" points="1182.35 504.41 1000.56 504.41 1000.56 671.37 916.53 671.37 916.53 278.12 1000.56 278.12 1000.56 420.37 1182.35 420.37 1182.35 279.22 1266.93 279.22 1266.93 671.37 1182.35 671.37 1182.35 504.41"/>
  <polygon class="st2" points="1409.18 599.42 1630.52 599.42 1630.52 671.92 1325.7 671.92 1325.7 278.67 1611.85 278.67 1611.85 351.17 1409.18 351.17 1409.18 439.6 1588.23 439.6 1588.23 515.94 1409.18 515.94 1409.18 599.42"/>
  <polygon class="st2" points="1753 385.77 1753 673.02 1684.89 673.02 1684.89 279.22 1753 279.22 1783.75 279.22 1958.96 524.18 1958.96 279.22 2032.01 279.22 2032.01 673.02 1958.96 673.02 1753 385.77"/>
  <path class="st0" d="M1100.97,191.52h-9.37v-49.28c-1.58,4.61-3.2,8.58-4.86,11.93l-9.25-1.56c6.48-11.52,10.59-23.97,12.33-37.35h-10.79v-8.81h12.57v-19.85h9.37v19.85h9.96v8.81h-9.96v3.34c4.58,6.17,8.81,12.41,12.69,18.73l-7.95,4.57c-1.42-2.68-3-5.46-4.74-8.36v57.97ZM1188.47,182.26v7.92h-66.16c-2.13,0-3.2-1.04-3.2-3.12v-33.34c-1.58,1.64-3.24,3.16-4.98,4.57-2.13-2.97-4.19-5.16-6.16-6.58,7.35-6.09,12.84-13.71,16.48-22.85l8.89,4.12c-1.03,1.86-2.05,3.72-3.08,5.58h18.97c2.53-3.86,4.31-7.17,5.34-9.92l8.42,4.01c-.87,1.86-1.82,3.83-2.84,5.91h27.86l-.83,7.92h-27.87v6.35h26.56v7.92h-26.56v6.8h26.09v7.91h-26.09v6.8h29.17ZM1141.76,99.2v3.57h-9.37v-3.57h-17.78v-7.92h17.78v-5.13h9.37v5.13h20.99v-5.13h9.37v5.13h17.07v7.92h-17.07v4.01h-9.37v-4.01h-20.99ZM1147.57,127.74h-30.59c-.79-.07-1.19-.48-1.19-1.23v-21.18c0-.74.4-1.12,1.19-1.12h30.59c.87,0,1.3.37,1.3,1.12v21.18c-.08.82-.52,1.23-1.3,1.23M1125.51,112.14c-.32,0-.44.11-.36.33v6.91c-.08.22.04.37.36.45h13.52c.32-.07.47-.22.47-.45v-6.91c0-.22-.16-.33-.47-.33h-13.52ZM1149.94,146.48h-20.16c-.87.07-1.31.48-1.31,1.23v5.13h21.46v-6.35ZM1149.94,160.75h-21.46v6.8h21.46v-6.8ZM1149.94,175.46h-21.46v5.46c.08.89.51,1.34,1.31,1.34h20.16v-6.8ZM1186.46,127.74h-31.07c-.79-.07-1.18-.48-1.18-1.23v-20.74c0-.74.39-1.11,1.18-1.11h31.07c.87,0,1.3.37,1.3,1.11v20.74c-.08.82-.51,1.23-1.3,1.23M1163.93,112.58c-.32,0-.44.11-.36.33v6.47c-.08.22.04.37.36.45h13.99c.31-.07.47-.22.47-.45v-6.47c0-.22-.16-.33-.47-.33h-13.99Z"/>
  <polygon class="st0" points="1250.49 102.55 1205.67 102.55 1205.67 92.4 1305.86 92.4 1305.86 102.55 1261.75 102.55 1261.75 176.24 1311.08 176.24 1311.08 186.39 1200.45 186.39 1200.45 176.24 1250.49 176.24 1250.49 102.55"/>
  <path class="st0" d="M1349.25,191.96h-9.84v-46.16c-2.14,5.8-5.34,12.04-9.61,18.73l-9.48-2.68c7.91-11,13.52-22.89,16.83-35.68h-14.35v-9.25h16.6v-16.05c-5.62.89-10.36,1.49-14.23,1.78l-2.25-9.14c16.36-1.71,28.93-3.79,37.7-6.24l2.38,8.92c-2.93.89-7.51,1.93-13.76,3.12v17.61h13.99v9.25h-13.99v2.45c5.85,5.95,11.38,12.19,16.6,18.73l-7.7,5.8c-2.53-3.64-5.5-7.58-8.9-11.82v50.62ZM1393.01,164.98h-30.83v-9.25h30.83v-14.6c-8.14.45-16.48.71-25.02.78l-1.9-9.7c26.64.45,47.55-1.26,62.72-5.13l2.73,9.37c-8.93,1.86-18.5,3.16-28.69,3.9v15.38h29.64v9.25h-29.64v15.27h28.69v9.25h-67.94v-9.25h29.4v-15.27ZM1427.75,122.39h-57.86c-.87,0-1.31-.44-1.31-1.34v-30.77c.08-.82.51-1.23,1.31-1.23h57.86c.95.07,1.42.49,1.42,1.23v30.77c0,.89-.47,1.34-1.42,1.34M1378.31,97.87c-.24,0-.36.11-.36.34v14.94c0,.3.12.45.36.45h41.03c.31,0,.47-.15.47-.45v-14.94c0-.22-.16-.34-.47-.34h-41.03Z"/>
  <path class="st0" d="M1460.47,101.21c-3.64,4.61-7.51,8.58-11.62,11.93-2.13-3.19-4.19-5.61-6.17-7.25,6.64-4.98,11.86-11.71,15.65-20.18l9.13,4.68c-.47.74-.95,1.56-1.42,2.45h30.47v8.36h-16.12c1.02,2.23,1.93,4.68,2.73,7.36l-8.9,3.12c-1.5-4.24-2.89-7.73-4.15-10.48h-9.61ZM1493.79,106.67h8.06c-1.03-.89-2.06-1.6-3.08-2.12,4.74-4.9,8.1-11.15,10.08-18.73l9.84,3.12c-.47,1.26-.99,2.57-1.54,3.9h35.81v8.36h-20.51c1.26,2.45,2.41,5.17,3.44,8.14l-8.89,3.34c-1.82-4.68-3.48-8.51-4.98-11.48h-8.9c-.08.07-.12.15-.12.22-1.9,3.27-4.19,6.36-6.88,9.26-.79-.82-1.46-1.49-2.02-2.01v6.24h43.04l8.54,4.01c-.63,5.5-2.29,12.04-4.98,19.62l-8.89-2.79c1.9-6.17,2.8-9.74,2.73-10.7,0-.89-.4-1.34-1.19-1.34h-88.09c-.63.08-.95.37-.95.89v13.16h-9.37v-21.18c0-1.12.59-1.67,1.78-1.67h47.07v-8.25ZM1538.61,190.07h-75.53c-2.13,0-3.2-1.04-3.2-3.12v-55.63c.08-1.71.99-2.56,2.73-2.56h72.09c1.9.07,2.85.93,2.85,2.56v21.41c0,1.78-.95,2.68-2.85,2.68h-64.97v6.8h69.13c2.21,0,3.32,1,3.32,3.01v21.52c0,2.23-1.18,3.34-3.56,3.34M1469.72,146.59h56.56c.95,0,1.42-.45,1.42-1.34v-6.47c0-.82-.47-1.23-1.42-1.23h-55.25c-.87.08-1.3.48-1.3,1.23v7.8ZM1469.72,171v8.47c0,.75.35,1.12,1.07,1.12h59.64c.79,0,1.18-.37,1.18-1.12v-7.47c0-.67-.39-1-1.18-1h-60.71Z"/>
  <path class="st0" d="M1578.93,135.33h-12.81v-8.81h12.81v-28.21h-13.28v-8.81h36.17v8.81h-13.04v28.21h12.09v8.81h-12.09v31.44c5.61-1.93,9.88-3.6,12.81-5.02l4.15,8.92c-3,1.49-7.99,3.38-14.94,5.69-9.56,3.27-17.35,5.61-23.36,7.02l-4.03-9.03c4.58-1.34,9.76-2.82,15.53-4.46v-34.56ZM1633.94,166.1h-27.51v-8.81h27.51v-11.26h-26.68c-.87,0-1.3-.45-1.3-1.34v-53.96c.08-.82.51-1.23,1.3-1.23h63.55c.95.08,1.42.48,1.42,1.23v53.96c0,.89-.48,1.34-1.42,1.34h-27.03v11.26h28.69v8.81h-28.69v13.49h33.43v8.81h-76.48v-8.81h33.2v-13.49ZM1633.94,122.39h-18.14v14.38c-.08.22.04.37.36.45h17.78v-14.83ZM1633.94,98.31h-17.78c-.32,0-.44.11-.36.33v14.94h18.14v-15.27ZM1643.78,113.59h18.61v-14.94c0-.22-.16-.33-.47-.33h-18.14v15.27ZM1643.78,137.22h18.14c.31-.07.47-.22.47-.45v-14.38h-18.61v14.83Z"/>
  <path class="st0" d="M1695.24,142.46v-8.81h41.38v-5.24h-40.43c-.87,0-1.3-.45-1.3-1.34v-20.51c.08-.82.51-1.23,1.3-1.23h40.43v-5.69h-50.04v-8.81h50.04v-5.13h10.31v5.13h49.33v8.81h-49.33v5.69h39.84c.95.07,1.42.48,1.42,1.23v20.51c0,.89-.47,1.34-1.42,1.34h-39.84v5.24h37.59c2.13.08,3.2,1.04,3.2,2.9v12.71h9.96v8.81h-9.96v12.15c0,2.01-1.07,3.01-3.2,3.01h-37.59v7.58c-.08,4.31-1.9,7.58-5.45,9.81-4.58,2.75-13.52,2.53-26.79-.67l.24-10.14c11.15,3.12,18.02,3.68,20.63,1.67.71-.59,1.07-1.67,1.07-3.23v-5.02h-40.91v-8.81h40.91v-6.35h-50.51v-8.81h50.51v-6.8h-41.38ZM1736.62,113.7h-31.06c-.32,0-.44.15-.36.45v5.35c-.08.3.04.48.36.56h31.06v-6.35ZM1746.94,120.05h30.47c.32-.07.48-.26.48-.56v-5.35c0-.3-.16-.45-.48-.45h-30.47v6.35ZM1746.94,149.26h30.47v-6.02c-.08-.52-.39-.78-.95-.78h-29.53v6.8ZM1746.94,164.42h29.53c.63-.07.95-.37.95-.89v-5.46h-30.47v6.35Z"/>
  <path class="st0" d="M1807.29,135.1v-9.25h23.48c-6.24-5.95-11.86-10.63-16.83-14.05l6.76-6.58c1.74,1.26,4.67,3.68,8.77,7.25,6.8-4.09,11.74-8.36,14.82-12.82.24-.89-.28-1.34-1.54-1.34h-32.72v-8.81h41.5l5.1,4.01c-3.24,8.1-9.96,16.39-20.16,24.86,1.74,1.64,3.36,3.16,4.86,4.57l-3.44,2.9h13.99l6.4,4.46c-1.9,9.44-5.34,17.95-10.31,25.53l-9.37-3.23c3.16-4.16,5.34-7.39,6.52-9.7,1.89-4.09,2.61-6.58,2.13-7.47-.24-.22-.59-.33-1.07-.33h-8.41v45.04c-.16,4.24-1.9,7.36-5.22,9.36-3.96,2.45-11.43,2.23-22.41-.67l.24-9.59c9.09,2.38,14.58,2.9,16.48,1.56.71-.59,1.07-1.6,1.07-3.01v-27.54c-4.67,7.8-9.17,13.82-13.52,18.06l-8.66-4.91c8.54-8.17,15.06-17.61,19.56-28.32h-18.02ZM1858.4,154.28v-9.37h18.14v-6.24h10.31v6.24h25.85c.79,0,1.46.15,2.02.45.47.3.87.78,1.18,1.45.16.22.27.56.36,1-.16,21.26-1.31,33.67-3.44,37.24-1.66,2.68-3.84,4.5-6.52,5.46-5.53,2.08-13.52,1.89-23.95-.56l-.47-10.93c8.7,2.9,14.94,3.68,18.73,2.34,1.5-.59,2.77-1.6,3.8-3.01.63-1.11,1.11-2.49,1.42-4.13.95-10.85,1.07-17.28.35-19.29-.32-.45-.75-.67-1.31-.67h-18.38c-1.11,6.32-4.27,13.38-9.48,21.18-6.09,6.47-14.35,11.82-24.78,16.05l-6.05-8.25c5.22-1.78,9.76-3.83,13.64-6.13,9.33-5.42,14.74-13.04,16.25-22.85h-17.67ZM1858.63,119.72l-7.7-6.13c3.95-3.57,7.27-7.47,9.96-11.71,2.06-3.42,3.91-8.62,5.58-15.61l9.6,1.67c-.32,1.34-.64,2.67-.95,4.01h43.04v9.25h-8.18c-3.88,9.44-8.78,17.06-14.7,22.85,6.88,4.16,15.06,7.17,24.54,9.03l-5.69,8.25c-9.72-2.38-18.54-6.13-26.44-11.26-6.72,4.01-14.47,7.17-23.24,9.48l-4.86-8.36c8.14-2.23,15.06-4.61,20.75-7.14-4.35-4.31-8.18-9.92-11.51-16.83-3,4.91-6.4,9.07-10.2,12.49M1887.8,118.71c5.13-4.91,9.17-10.74,12.09-17.5h-23.6c1.26,3.27,2.65,6.13,4.15,8.58,1.98,3.42,4.43,6.39,7.35,8.92"/>
  <path class="st0" d="M1937.25,189.29l-9.6-4.91c6.01-15.31,9.13-31.81,9.37-49.5v-40.58c-.16-2.23.63-3.38,2.37-3.46,13.12-.3,26.32-1.67,39.61-4.13l3.79,9.7c-10.51,1.86-21.98,3.12-34.39,3.79-1.11,0-1.62.56-1.54,1.67v9.48h31.07c2.21,0,3.32,1,3.32,3.01v33.89c0,2.08-1.11,3.12-3.32,3.12h-31.89c-1.35,13.01-4.27,25.64-8.78,37.91M1946.85,121.06v13.82c-.08,2.31-.16,4.57-.24,6.8h23.24c.71,0,1.07-.34,1.07-1v-18.73c0-.59-.35-.89-1.07-.89h-23ZM1999.26,127.3v15.16c-.08,9.07-1.82,16.87-5.22,23.41-4.27,8.18-11.14,16.43-20.63,24.75l-7.82-7.8c10.04-8.32,16.52-15.76,19.45-22.3,2.53-5.5,3.83-11.52,3.91-18.06v-48.61c-.16-2.23.75-3.38,2.73-3.46,16.68-.37,31.46-1.6,44.34-3.68l3.56,9.81c-11.78,1.86-24.66,3.01-38.65,3.46-1.19,0-1.74.56-1.66,1.67v15.94h40.79v9.7h-12.33v64.22h-10.32v-64.22h-18.14Z"/>
  <g>
    <path class="st1" d="M142.38,188.48v382.75h11.42v14.83h-11.42v4.32c8.05,10.67,15.53,21.61,22.39,32.84l-13.13,7.88c-2.71-5.08-5.81-10.54-9.27-16.33v99.07l27.49.05c-1.69-.77-2.55-2.38-2.55-4.87v-58.28c-2.87,2.96-5.94,5.86-9.21,8.68-3.27-5.4-6.53-9.33-9.8-11.77,12.28-10.03,21.62-22.96,28.02-38.79l14.5,7.72c-1.57,2.7-3.01,5.28-4.31,7.72h35.07c4.05-6.69,6.92-12.35,8.62-16.98l12.73,5.98c-1.31,3.35-3.01,7.01-5.1,11h50.35l-1.37,13.7h-49.96v11.77h47.02v13.7h-47.02v11.77h47.02v13.7h-47.02v11.77h53.68v13.37l187.27.33-184.29-264.63,169.38-261.02-320.54-.29ZM218.84,603.85c-.13,1.42-.85,2.12-2.16,2.12h-53.68c-1.31-.13-1.96-.84-1.96-2.12v-35.89c0-1.28.65-1.93,1.96-1.93h53.68c1.43,0,2.16.65,2.16,1.93v35.89ZM287.8,603.08c-.13,1.42-.85,2.12-2.16,2.12h-53.68c-1.31-.13-1.96-.83-1.96-2.12v-35.12c0-1.28.65-1.93,1.96-1.93h53.68c1.44,0,2.16.65,2.16,1.93v35.12ZM290.94,556.96h-31.35v6.18h-15.48v-6.18h-37.81v6.18h-15.48v-6.18h-30.95v-13.7h30.95v-8.1h15.48v8.1h37.81v-8.1h15.48v8.1h31.35v13.7Z"/>
    <path class="st1" d="M271.54,578.96h-25.47c-.52,0-.72.19-.59.58v11.96c-.13.39.06.65.59.77h25.47c.52-.13.78-.39.78-.77v-11.96c0-.39-.26-.58-.78-.58Z"/>
    <rect class="st1" x="182.79" y="663.48" width="38.59" height="11.77"/>
    <path class="st1" d="M202.58,578.96h-25.47c-.52,0-.72.19-.59.58v12.74c-.13.39.06.64.59.77h25.47c.52-.13.78-.39.78-.77v-12.74c0-.39-.26-.58-.78-.58Z"/>
    <path class="st1" d="M184.95,700.72h36.44v-11.77h-38.59v9.46c.13,1.54.85,2.32,2.15,2.32Z"/>
    <path class="st1" d="M124.71,635.41c-2.27,6.24-4.59,11.68-6.96,16.33l-15.28-3c10.58-18.89,17.63-39.79,21.16-62.68h-17.83v-14.83h18.91V188.46l-60.53-.05v525.29l60.53.11v-78.4Z"/>
    <path class="st1" d="M221.39,638.01h-36.44c-1.44.13-2.15.84-2.15,2.12v9.65h38.59v-11.77Z"/>
  </g>
</svg>